<svg xmlns="http://www.w3.org/2000/svg" xmlns:xlink="http://www.w3.org/1999/xlink" width="2818" zoomAndPan="magnify" viewBox="0 0 2113.5 695.999997" height="928" preserveAspectRatio="xMidYMid meet" version="1.0"><defs><clipPath id="994ce7cf9c"><path d="M 826 208.832031 L 866 208.832031 L 866 253 L 826 253 Z M 826 208.832031 " clip-rule="nonzero"/></clipPath><clipPath id="d2a635c030"><path d="M 1392 254 L 1478.949219 254 L 1478.949219 487.015625 L 1392 487.015625 Z M 1392 254 " clip-rule="nonzero"/></clipPath></defs><g clip-path="url(#994ce7cf9c)"><path fill="#d9d9d9" d="M 835.261719 208.832031 C 845.269531 210.371094 855.296875 211.796875 865.335938 213.121094 C 864.769531 216.0625 864.484375 217.53125 863.917969 220.472656 C 856.898438 219.53125 849.882812 218.554688 842.871094 217.539062 C 842.136719 220.964844 841.769531 222.675781 841.035156 226.097656 C 847.402344 227.035156 853.78125 227.925781 860.160156 228.777344 C 859.589844 231.695312 859.308594 233.152344 858.738281 236.070312 C 852.308594 235.214844 845.890625 234.3125 839.476562 233.371094 C 838.730469 236.839844 838.359375 238.574219 837.617188 242.042969 C 845.011719 243.113281 852.414062 244.140625 859.820312 245.132812 C 859.257812 248.074219 858.972656 249.542969 858.410156 252.484375 C 847.757812 251.0625 837.125 249.550781 826.503906 247.941406 C 829.421875 234.90625 832.34375 221.875 835.261719 208.839844 Z M 835.261719 208.832031 " fill-opacity="1" fill-rule="nonzero"/></g><path fill="#d9d9d9" d="M 872.738281 214.078125 C 876.417969 214.546875 878.257812 214.773438 881.9375 215.214844 C 880.085938 225.75 878.238281 236.28125 876.386719 246.816406 C 882.136719 247.496094 887.890625 248.15625 893.648438 248.792969 C 893.15625 251.902344 892.90625 253.460938 892.414062 256.570312 C 883.425781 255.574219 874.4375 254.515625 865.464844 253.394531 C 867.886719 240.289062 870.3125 227.183594 872.738281 214.078125 Z M 872.738281 214.078125 " fill-opacity="1" fill-rule="nonzero"/><path fill="#d9d9d9" d="M 916.808594 218.992188 C 920.875 219.378906 922.914062 219.570312 926.984375 219.933594 C 929.96875 228.421875 933.027344 236.886719 936.15625 245.328125 C 941.167969 237.546875 946.113281 229.734375 951.003906 221.875 C 955.078125 222.167969 957.117188 222.308594 961.191406 222.578125 C 959.933594 235.792969 958.675781 249.011719 957.417969 262.226562 C 953.976562 262 952.253906 261.882812 948.816406 261.636719 C 949.742188 252.695312 950.667969 243.75 951.59375 234.804688 C 947.09375 242.171875 942.5 249.480469 937.871094 256.765625 C 935.421875 256.574219 934.199219 256.476562 931.753906 256.273438 C 928.882812 248.386719 926.109375 240.464844 923.394531 232.523438 C 922.21875 241.449219 921.042969 250.371094 919.871094 259.296875 C 916.433594 258.984375 914.714844 258.824219 911.28125 258.496094 C 913.125 245.324219 914.96875 232.15625 916.8125 218.988281 Z M 916.808594 218.992188 " fill-opacity="1" fill-rule="nonzero"/><path fill="#d9d9d9" d="M 969.632812 223.105469 C 979.710938 223.710938 989.792969 224.199219 999.882812 224.59375 C 999.714844 227.566406 999.628906 229.054688 999.460938 232.027344 C 992.40625 231.742188 985.351562 231.417969 978.296875 231.054688 C 978.027344 234.523438 977.894531 236.257812 977.625 239.730469 C 984.03125 240.074219 990.445312 240.371094 996.855469 240.628906 C 996.679688 243.582031 996.597656 245.054688 996.421875 248.007812 C 989.964844 247.75 983.507812 247.449219 977.050781 247.105469 C 976.777344 250.621094 976.644531 252.378906 976.371094 255.890625 C 983.8125 256.273438 991.253906 256.613281 998.699219 256.914062 C 998.535156 259.886719 998.449219 261.375 998.285156 264.347656 C 987.582031 263.917969 976.890625 263.390625 966.195312 262.777344 C 967.34375 249.554688 968.488281 236.332031 969.632812 223.105469 Z M 969.632812 223.105469 " fill-opacity="1" fill-rule="nonzero"/><path fill="#d9d9d9" d="M 1024.5625 225.34375 C 1029.75 225.457031 1033.726562 226.710938 1036.523438 229.136719 C 1039.324219 231.5625 1040.703125 234.980469 1040.636719 239.414062 C 1040.5625 244.074219 1039.0625 247.648438 1036.109375 250.125 C 1033.152344 252.605469 1028.992188 253.800781 1023.660156 253.683594 C 1020.367188 253.613281 1018.722656 253.570312 1015.429688 253.480469 C 1015.246094 258.046875 1015.15625 260.328125 1014.976562 264.894531 C 1011.132812 264.789062 1009.210938 264.730469 1005.367188 264.601562 C 1006.015625 251.355469 1006.664062 238.109375 1007.316406 224.859375 C 1013.0625 225.042969 1018.808594 225.203125 1024.558594 225.339844 Z M 1023.898438 246.304688 C 1026.351562 246.355469 1028.257812 245.8125 1029.613281 244.683594 C 1030.964844 243.554688 1031.664062 241.851562 1031.71875 239.578125 C 1031.773438 237.34375 1031.160156 235.667969 1029.878906 234.542969 C 1028.597656 233.421875 1026.75 232.839844 1024.328125 232.785156 C 1021.101562 232.710938 1019.488281 232.671875 1016.265625 232.585938 C 1016.050781 237.992188 1015.941406 240.695312 1015.730469 246.101562 C 1019 246.191406 1020.632812 246.230469 1023.898438 246.304688 Z M 1022.558594 250.25 C 1026.230469 250.335938 1028.066406 250.371094 1031.738281 250.429688 C 1034.886719 255.441406 1038.066406 260.425781 1041.285156 265.390625 C 1036.925781 265.34375 1034.746094 265.3125 1030.386719 265.238281 C 1027.753906 260.253906 1025.140625 255.257812 1022.554688 250.25 Z M 1022.558594 250.25 " fill-opacity="1" fill-rule="nonzero"/><path fill="#d9d9d9" d="M 1075.3125 226.535156 C 1077.925781 227.527344 1080.210938 228.921875 1082.160156 230.722656 C 1084.113281 232.523438 1085.671875 234.65625 1086.828125 237.109375 C 1087.988281 239.570312 1088.617188 242.253906 1088.710938 245.167969 C 1088.804688 248.085938 1088.339844 250.804688 1087.316406 253.328125 C 1086.289062 255.847656 1084.820312 258.058594 1082.90625 259.949219 C 1080.988281 261.835938 1078.691406 263.324219 1076.019531 264.398438 C 1073.34375 265.476562 1070.4375 266.027344 1067.3125 266.046875 C 1064.183594 266.070312 1061.269531 265.558594 1058.574219 264.523438 C 1055.878906 263.484375 1053.542969 262.03125 1051.566406 260.167969 C 1049.59375 258.308594 1048.066406 256.117188 1046.992188 253.613281 C 1045.914062 251.105469 1045.394531 248.394531 1045.429688 245.476562 C 1045.460938 242.558594 1046.035156 239.867188 1047.140625 237.390625 C 1048.246094 234.917969 1049.769531 232.765625 1051.703125 230.933594 C 1053.636719 229.105469 1055.902344 227.679688 1058.496094 226.652344 C 1061.089844 225.625 1063.878906 225.105469 1066.886719 225.082031 C 1069.890625 225.0625 1072.695312 225.542969 1075.308594 226.535156 Z M 1062.433594 233.863281 C 1061 234.515625 1059.734375 235.40625 1058.632812 236.542969 C 1057.53125 237.683594 1056.667969 239.019531 1056.039062 240.550781 C 1055.410156 242.085938 1055.09375 243.738281 1055.089844 245.519531 C 1055.089844 247.300781 1055.402344 248.976562 1056.035156 250.546875 C 1056.671875 252.121094 1057.550781 253.484375 1058.671875 254.636719 C 1059.796875 255.792969 1061.105469 256.6875 1062.601562 257.328125 C 1064.097656 257.964844 1065.664062 258.277344 1067.292969 258.265625 C 1068.960938 258.253906 1070.53125 257.917969 1071.996094 257.257812 C 1073.457031 256.597656 1074.71875 255.683594 1075.78125 254.515625 C 1076.84375 253.34375 1077.664062 251.980469 1078.246094 250.417969 C 1078.828125 248.855469 1079.101562 247.183594 1079.0625 245.402344 C 1079.023438 243.585938 1078.679688 241.914062 1078.035156 240.390625 C 1077.394531 238.867188 1076.527344 237.542969 1075.445312 236.421875 C 1074.359375 235.300781 1073.09375 234.425781 1071.644531 233.796875 C 1070.195312 233.164062 1068.660156 232.855469 1067.03125 232.867188 C 1065.402344 232.878906 1063.875 233.210938 1062.4375 233.859375 Z M 1062.433594 233.863281 " fill-opacity="1" fill-rule="nonzero"/><path fill="#d9d9d9" d="M 1106.855469 224.824219 C 1110.933594 224.683594 1112.972656 224.605469 1117.050781 224.4375 C 1121.597656 232.441406 1126.203125 240.402344 1130.878906 248.332031 C 1134.355469 239.996094 1137.761719 231.632812 1141.101562 223.242188 C 1145.179688 223.003906 1147.21875 222.878906 1151.292969 222.613281 C 1152.542969 235.832031 1153.796875 249.050781 1155.046875 262.265625 C 1151.605469 262.488281 1149.882812 262.597656 1146.441406 262.800781 C 1145.667969 253.847656 1144.894531 244.894531 1144.121094 235.9375 C 1141.070312 243.792969 1137.925781 251.617188 1134.722656 259.410156 C 1132.273438 259.535156 1131.046875 259.597656 1128.597656 259.714844 C 1124.285156 252.300781 1120.054688 244.839844 1115.882812 237.347656 C 1116.40625 246.316406 1116.929688 255.28125 1117.457031 264.246094 C 1114.011719 264.382812 1112.289062 264.449219 1108.84375 264.566406 C 1108.179688 251.320312 1107.515625 238.078125 1106.851562 224.832031 Z M 1106.855469 224.824219 " fill-opacity="1" fill-rule="nonzero"/><path fill="#d9d9d9" d="M 1159.738281 222.035156 C 1169.8125 221.328125 1179.882812 220.5 1189.941406 219.578125 C 1190.339844 222.539062 1190.535156 224.015625 1190.933594 226.972656 C 1183.890625 227.605469 1176.847656 228.203125 1169.800781 228.761719 C 1170.1875 232.222656 1170.382812 233.953125 1170.773438 237.417969 C 1177.175781 236.921875 1183.578125 236.386719 1189.972656 235.808594 C 1190.359375 238.746094 1190.550781 240.214844 1190.9375 243.148438 C 1184.496094 243.730469 1178.050781 244.273438 1171.597656 244.769531 C 1171.992188 248.277344 1172.1875 250.03125 1172.585938 253.539062 C 1180.019531 252.949219 1187.449219 252.320312 1194.875 251.652344 C 1195.273438 254.609375 1195.472656 256.089844 1195.867188 259.046875 C 1185.191406 260.011719 1174.511719 260.882812 1163.820312 261.664062 C 1162.457031 248.453125 1161.097656 235.242188 1159.730469 222.035156 Z M 1159.738281 222.035156 " fill-opacity="1" fill-rule="nonzero"/><path fill="#d9d9d9" d="M 1214.550781 217.109375 C 1219.71875 216.542969 1223.90625 217.265625 1227.144531 219.296875 C 1230.382812 221.324219 1232.402344 224.527344 1233.167969 228.910156 C 1233.980469 233.523438 1233.164062 237.25 1230.699219 240.082031 C 1228.230469 242.914062 1224.328125 244.640625 1219.015625 245.21875 C 1215.734375 245.574219 1214.097656 245.75 1210.816406 246.085938 C 1211.5 250.621094 1211.839844 252.886719 1212.523438 257.421875 C 1208.691406 257.816406 1206.773438 258.007812 1202.941406 258.378906 C 1201.085938 245.210938 1199.222656 232.042969 1197.363281 218.875 C 1203.097656 218.308594 1208.824219 217.71875 1214.554688 217.109375 Z M 1217.851562 237.894531 C 1220.300781 237.625 1222.089844 236.84375 1223.214844 235.550781 C 1224.34375 234.257812 1224.71875 232.484375 1224.34375 230.234375 C 1223.976562 228.019531 1223.046875 226.445312 1221.5625 225.503906 C 1220.082031 224.5625 1218.136719 224.226562 1215.722656 224.484375 C 1212.511719 224.835938 1210.902344 225.007812 1207.6875 225.339844 C 1208.5 230.707031 1208.898438 233.390625 1209.710938 238.761719 C 1212.964844 238.425781 1214.597656 238.25 1217.851562 237.894531 Z M 1217.269531 241.96875 C 1220.929688 241.570312 1222.757812 241.367188 1226.417969 240.953125 C 1230.488281 245.492188 1234.589844 250.003906 1238.726562 254.480469 C 1234.386719 255.007812 1232.214844 255.261719 1227.871094 255.753906 C 1224.316406 251.171875 1220.78125 246.578125 1217.269531 241.96875 Z M 1217.269531 241.96875 " fill-opacity="1" fill-rule="nonzero"/><path fill="#d9d9d9" d="M 1265.222656 211.671875 C 1268.011719 212.308594 1270.550781 213.386719 1272.835938 214.914062 C 1275.125 216.4375 1277.078125 218.335938 1278.699219 220.617188 C 1280.316406 222.890625 1281.453125 225.464844 1282.09375 228.328125 C 1282.738281 231.199219 1282.792969 233.941406 1282.246094 236.566406 C 1281.699219 239.191406 1280.652344 241.566406 1279.105469 243.683594 C 1277.554688 245.800781 1275.542969 247.566406 1273.085938 248.976562 C 1270.628906 250.390625 1267.835938 251.3125 1264.730469 251.746094 C 1261.621094 252.171875 1258.625 252.050781 1255.746094 251.378906 C 1252.867188 250.703125 1250.269531 249.574219 1247.957031 247.992188 C 1245.640625 246.40625 1243.714844 244.445312 1242.171875 242.113281 C 1240.625 239.777344 1239.597656 237.164062 1239.078125 234.28125 C 1238.558594 231.398438 1238.621094 228.660156 1239.253906 226.070312 C 1239.886719 223.484375 1240.992188 221.160156 1242.570312 219.101562 C 1244.144531 217.042969 1246.128906 215.339844 1248.511719 213.988281 C 1250.898438 212.632812 1253.574219 211.757812 1256.5625 211.34375 C 1259.550781 210.929688 1262.429688 211.039062 1265.222656 211.675781 Z M 1253.789062 220.589844 C 1252.480469 221.414062 1251.390625 222.464844 1250.515625 223.734375 C 1249.636719 225 1249.027344 226.433594 1248.691406 228.03125 C 1248.355469 229.628906 1248.351562 231.304688 1248.683594 233.0625 C 1249.019531 234.824219 1249.648438 236.4375 1250.578125 237.910156 C 1251.507812 239.378906 1252.636719 240.609375 1253.972656 241.605469 C 1255.3125 242.597656 1256.78125 243.3125 1258.394531 243.75 C 1260 244.183594 1261.617188 244.289062 1263.238281 244.0625 C 1264.894531 243.832031 1266.390625 243.300781 1267.726562 242.457031 C 1269.058594 241.613281 1270.140625 240.546875 1270.980469 239.253906 C 1271.8125 237.960938 1272.371094 236.503906 1272.660156 234.886719 C 1272.945312 233.265625 1272.902344 231.582031 1272.523438 229.828125 C 1272.140625 228.039062 1271.484375 226.433594 1270.554688 225.011719 C 1269.625 223.589844 1268.515625 222.394531 1267.222656 221.429688 C 1265.929688 220.460938 1264.503906 219.761719 1262.941406 219.328125 C 1261.378906 218.898438 1259.789062 218.792969 1258.175781 219.015625 C 1256.554688 219.242188 1255.09375 219.765625 1253.789062 220.59375 Z M 1253.789062 220.589844 " fill-opacity="1" fill-rule="nonzero"/><path fill="#d9d9d9" d="M 727.324219 310.699219 C 728.644531 309.878906 730.289062 308.007812 730.613281 303.726562 C 731.179688 296.351562 731.183594 288.789062 731.195312 281.472656 C 731.195312 279.921875 731.195312 278.371094 731.203125 276.824219 C 731.230469 270.425781 730.757812 268.441406 730.039062 267.429688 C 729.144531 266.175781 727.371094 265.375 724.460938 264.925781 C 696.855469 260.609375 668.949219 255.734375 641.515625 250.4375 C 639.539062 250.050781 636.75 249.753906 635.367188 251.617188 C 634.75 252.445312 634.148438 253.980469 634.136719 262.644531 C 634.136719 264.617188 634.125 266.589844 634.117188 268.566406 C 634.078125 277.523438 634.039062 286.785156 634.578125 295.839844 C 634.8125 299.796875 635.84375 302.722656 637.558594 304.296875 C 638.710938 305.351562 639.847656 305.46875 640.59375 305.386719 C 641.953125 305.234375 643.191406 304.320312 644.378906 302.605469 L 644.445312 302.507812 C 646.777344 298.621094 648.253906 297.679688 648.921875 297.464844 C 649.691406 297.214844 652.242188 296.917969 660.691406 297.671875 C 666.484375 298.191406 666.84375 300.625 666.933594 301.640625 C 666.867188 365.28125 666.839844 417.355469 666.851562 465.507812 C 666.585938 468.058594 665.402344 470.652344 663.324219 473.222656 C 661.253906 475.78125 660.449219 478.609375 660.996094 481.390625 C 661.566406 484.289062 663.363281 485.90625 665.980469 485.90625 C 666.191406 485.90625 666.40625 485.890625 666.628906 485.871094 L 666.804688 485.851562 L 666.972656 485.800781 C 672.898438 484.015625 678.914062 482.246094 684.855469 480.546875 C 689.449219 479.238281 694.144531 477.953125 698.8125 476.722656 L 699.019531 476.667969 L 699.203125 476.566406 C 700.972656 475.609375 702.324219 474.261719 703.21875 472.566406 C 704.148438 470.800781 704.421875 469.023438 704.039062 467.28125 C 703.621094 465.402344 702.511719 464.015625 700.824219 463.273438 C 700.476562 463.117188 700.175781 462.898438 699.910156 462.597656 L 698.828125 461.378906 C 698.828125 461.378906 698.695312 461.183594 698.582031 460.566406 C 698.414062 459.703125 698.246094 459.050781 698.0625 458.570312 C 698.039062 458.476562 697.953125 458.011719 697.953125 456.53125 L 697.949219 442.9375 C 697.9375 400.9375 697.988281 356.742188 698.117188 303.863281 C 698.339844 302.203125 698.671875 301.625 698.78125 301.472656 C 699.121094 301.394531 700.347656 301.226562 704.082031 301.5625 C 712.617188 302.324219 715.242188 303.027344 716.042969 303.378906 C 716.910156 303.753906 718.425781 304.945312 720.730469 308.460938 L 720.789062 308.550781 C 723.636719 312.382812 726.308594 311.328125 727.324219 310.695312 Z M 727.324219 310.699219 " fill-opacity="1" fill-rule="nonzero"/><path fill="#d9d9d9" d="M 830.375 439.816406 C 829.316406 439.386719 828.722656 439 828.398438 438.726562 C 825.785156 434.953125 825.238281 430.609375 824.660156 426.011719 C 824.582031 425.371094 824.5 424.730469 824.40625 424.042969 C 822.835938 414.496094 821.203125 404.789062 819.621094 395.402344 C 813.957031 361.75 808.101562 326.953125 803.929688 292.652344 C 803.632812 290.203125 804.351562 288.183594 806.015625 286.808594 C 808.101562 285.210938 808.800781 283.011719 807.988281 280.613281 C 807.234375 278.402344 805.296875 276.625 802.527344 275.613281 C 801.09375 275.085938 799.324219 274.699219 797.269531 274.449219 C 795.484375 274.234375 793.214844 274.039062 790.523438 273.875 C 787.917969 273.710938 785.71875 273.519531 784 273.300781 C 779.933594 272.789062 777.902344 272.523438 773.839844 271.992188 C 767.816406 271.191406 761.730469 270.367188 755.738281 269.539062 L 755.480469 269.503906 L 755.222656 269.542969 C 751.429688 270.128906 749.945312 272.160156 749.371094 273.761719 C 748.785156 275.382812 748.601562 277.867188 750.988281 280.460938 C 753.054688 282.851562 753.554688 284.386719 753.585938 285.273438 C 745.792969 334.519531 738.398438 385.160156 731.605469 435.792969 C 731.019531 440.203125 730.4375 444.613281 729.863281 449.023438 C 729.335938 452.128906 727.785156 454.929688 725.144531 457.566406 C 722.664062 459.945312 721.597656 462.496094 721.980469 465.140625 C 722.390625 467.980469 724.203125 469.585938 726.980469 469.585938 C 727.097656 469.585938 727.21875 469.585938 727.339844 469.578125 L 727.652344 469.535156 C 733.550781 468.179688 739.589844 466.828125 745.605469 465.519531 C 747.445312 465.128906 748.367188 464.933594 750.203125 464.546875 C 752.308594 464.105469 753.359375 463.886719 755.464844 463.457031 C 757.128906 463.117188 757.960938 462.949219 759.628906 462.617188 L 759.894531 462.5625 L 760.132812 462.429688 C 762.558594 461.101562 764.234375 459.261719 765.117188 456.960938 C 766.167969 454.230469 765.273438 451.65625 762.785156 450.25 C 761.382812 449.457031 760.652344 448.058594 760.621094 446.097656 C 761.335938 441.433594 762.054688 436.769531 762.773438 432.105469 C 763.316406 429.957031 766.773438 429.074219 769.59375 428.714844 C 776.585938 427.824219 783.78125 426.949219 790.96875 426.121094 C 792.140625 426.210938 792.785156 426.703125 793.144531 427.78125 C 793.859375 432.234375 794.578125 436.695312 795.300781 441.148438 C 795.246094 442.332031 794.429688 443.632812 792.804688 445.132812 C 790.8125 446.972656 790.144531 449.464844 791.019531 451.808594 C 791.597656 453.355469 793.082031 455.289062 796.890625 455.734375 L 797.136719 455.765625 L 797.382812 455.726562 C 803.324219 454.757812 809.394531 453.800781 815.425781 452.878906 C 820.089844 452.171875 824.828125 451.488281 829.511719 450.84375 L 829.730469 450.816406 L 829.933594 450.730469 C 831.480469 450.105469 832.667969 449.09375 833.457031 447.734375 C 834.332031 446.226562 834.4375 444.601562 833.773438 443.042969 C 833.140625 441.5625 832 440.476562 830.375 439.816406 Z M 786.136719 390.089844 C 785.519531 390.890625 784.285156 391.355469 782.472656 391.464844 C 778.097656 391.734375 775.898438 391.871094 771.558594 392.164062 C 770.621094 392.117188 770.253906 391.78125 770.054688 391.535156 C 769.613281 390.972656 768.996094 389.40625 769.832031 385.203125 L 769.847656 385.113281 C 772.492188 367.199219 775.296875 348.855469 778.417969 329.027344 C 778.417969 329.039062 778.417969 329.046875 778.421875 329.058594 C 780.992188 347.464844 783.726562 366.671875 786.546875 386.15625 L 786.558594 386.230469 C 786.890625 387.996094 786.75 389.292969 786.136719 390.085938 Z M 786.136719 390.089844 " fill-opacity="1" fill-rule="nonzero"/><path fill="#d9d9d9" d="M 955.230469 298.03125 L 955.421875 297.9375 C 958.847656 296.019531 958.730469 293.464844 958.355469 292.109375 C 957.949219 290.632812 956.734375 288.722656 953.257812 288.011719 C 952.019531 287.757812 949.957031 287.425781 947.214844 287.285156 C 944.855469 287.167969 941.921875 287.082031 938.246094 287.023438 C 934.789062 286.96875 932.121094 286.886719 930.308594 286.785156 C 924.394531 286.4375 920.136719 286.621094 917.289062 287.339844 C 913.945312 288.175781 911.667969 290.617188 910.503906 294.648438 C 906.5625 310.140625 902.683594 325.890625 898.703125 342.570312 C 895.519531 325.90625 892.445312 309.34375 889.550781 293.222656 L 889.535156 293.136719 C 888.894531 290.371094 887.445312 288.097656 885.21875 286.386719 C 883.085938 284.75 880.964844 283.75 878.914062 283.410156 C 877.132812 283.117188 874.328125 282.808594 870.347656 282.464844 C 862.871094 281.824219 855.261719 281.128906 847.730469 280.402344 L 847.550781 280.386719 L 847.371094 280.40625 C 845.4375 280.617188 843.925781 281.320312 842.871094 282.5 C 841.710938 283.796875 841.324219 285.375 841.75 287.066406 C 842.136719 288.609375 843.113281 289.875 844.652344 290.832031 C 846.515625 292.230469 847.527344 293.824219 847.753906 295.691406 C 847.191406 332 846.929688 370.925781 846.894531 421.890625 L 846.894531 432.148438 C 846.894531 433.078125 846.828125 433.4375 846.8125 433.523438 C 846.621094 433.953125 846.449219 434.507812 846.28125 435.222656 C 846.167969 435.699219 846.042969 435.859375 846.015625 435.890625 L 844.90625 437.160156 C 844.585938 437.535156 844.195312 437.863281 843.753906 438.144531 L 843.589844 438.261719 C 840.640625 440.644531 840.550781 443.101562 840.996094 444.742188 C 841.375 446.136719 842.585938 448.496094 846.433594 448.578125 L 846.5625 448.578125 C 846.5625 448.578125 846.691406 448.566406 846.691406 448.566406 C 852.632812 447.832031 858.71875 447.109375 864.789062 446.414062 C 869.445312 445.890625 874.195312 445.375 878.917969 444.894531 L 879.085938 444.875 L 879.25 444.828125 C 881.078125 444.277344 882.492188 443.375 883.460938 442.136719 C 884.847656 440.359375 884.753906 438.691406 884.433594 437.605469 C 884.117188 436.546875 883.296875 435.109375 881.171875 434.257812 C 880.769531 434.101562 880.4375 433.898438 880.152344 433.640625 L 879.070312 432.671875 C 879.070312 432.671875 879 432.574219 878.925781 432.285156 C 878.753906 431.621094 878.578125 431.121094 878.386719 430.726562 C 878.367188 430.613281 878.320312 430.277344 878.320312 429.507812 L 878.328125 419.632812 C 878.351562 399.519531 878.402344 382.109375 878.492188 366.125 C 880.804688 377.484375 883.25 389.296875 885.886719 401.855469 L 885.933594 402.039062 C 888.152344 408.941406 888.546875 409.691406 888.699219 409.976562 C 889.5625 411.613281 891.824219 411.703125 893.925781 411.574219 C 898.175781 411.316406 900.300781 411.191406 904.550781 410.941406 L 904.84375 410.925781 L 905.113281 410.816406 C 910.199219 408.773438 911.269531 403.65625 911.976562 400.28125 C 914.5 388.664062 917.109375 376.859375 919.765625 365.023438 C 919.671875 380.378906 919.609375 397.160156 919.574219 416.605469 L 919.5625 426.074219 C 919.5625 426.824219 919.511719 427.144531 919.496094 427.242188 C 919.300781 427.644531 919.121094 428.160156 918.945312 428.816406 C 918.84375 429.203125 918.734375 429.3125 918.734375 429.316406 L 917.613281 430.449219 C 917.289062 430.777344 916.898438 431.0625 916.453125 431.304688 L 916.285156 431.410156 C 913.015625 433.691406 913.175781 436.246094 913.5625 437.5625 C 913.949219 438.863281 915.164062 441.078125 918.988281 441.296875 L 919.105469 441.300781 L 919.222656 441.292969 C 925.335938 440.835938 931.527344 440.398438 937.617188 439.988281 C 942.355469 439.675781 947.183594 439.378906 951.980469 439.113281 L 952.292969 439.070312 C 954.15625 438.621094 955.601562 437.8125 956.597656 436.664062 C 958.070312 434.960938 957.972656 433.304688 957.628906 432.21875 C 957.3125 431.21875 956.503906 429.859375 954.457031 428.992188 C 952.527344 427.894531 951.425781 426.761719 951.425781 425.871094 C 951.441406 389.214844 951.507812 350.203125 952.0625 311.734375 L 952.214844 302.554688 C 952.226562 301.890625 952.273438 301.589844 952.296875 301.480469 C 952.5 301.097656 952.683594 300.625 952.867188 300 C 952.941406 299.75 953.007812 299.660156 953.003906 299.660156 L 954.136719 298.6875 C 954.441406 298.425781 954.8125 298.207031 955.234375 298.03125 Z M 955.230469 298.03125 " fill-opacity="1" fill-rule="nonzero"/><path fill="#d9d9d9" d="M 1075.433594 426.414062 C 1074.277344 425.886719 1073.636719 425.460938 1073.289062 425.171875 C 1070.75 421.90625 1070.125 418.023438 1069.464844 413.914062 C 1069.386719 413.421875 1069.304688 412.929688 1069.214844 412.390625 C 1066.800781 400.238281 1064.199219 387.894531 1061.679688 375.957031 C 1056.734375 352.53125 1051.625 328.304688 1047.703125 304.410156 C 1047.339844 302.199219 1048.59375 300.746094 1049.664062 299.949219 C 1052.796875 297.777344 1052.082031 295.214844 1051.632812 294.214844 C 1051.039062 292.90625 1049.566406 291.183594 1045.914062 290.445312 C 1044.472656 290.15625 1042.761719 290.007812 1040.675781 289.992188 C 1038.882812 289.980469 1036.671875 290.019531 1033.910156 290.128906 C 1031.304688 290.226562 1029.085938 290.269531 1027.316406 290.246094 C 1023.21875 290.191406 1021.171875 290.160156 1017.078125 290.085938 C 1011.089844 289.96875 1004.945312 289.832031 998.816406 289.675781 L 998.625 289.671875 L 998.433594 289.707031 C 995.472656 290.28125 993.53125 291.511719 992.664062 293.351562 C 992.195312 294.34375 991.441406 296.898438 994.457031 299.136719 C 996.417969 300.691406 996.78125 301.625 996.835938 302 C 989.472656 337 982.128906 373.546875 974.394531 413.71875 L 972.601562 423.128906 C 972.109375 425.101562 970.621094 426.804688 968.082031 428.300781 C 964.539062 430.300781 964.179688 432.636719 964.507812 434.246094 C 964.773438 435.574219 965.808594 437.851562 969.710938 438.175781 L 969.824219 438.183594 L 969.9375 438.179688 C 976.03125 437.90625 982.230469 437.648438 988.363281 437.414062 C 990.253906 437.34375 991.195312 437.3125 993.082031 437.25 C 995.242188 437.175781 996.316406 437.140625 998.476562 437.074219 C 1000.183594 437.019531 1001.039062 436.996094 1002.746094 436.949219 L 1002.96875 436.941406 L 1003.179688 436.882812 C 1005.746094 436.152344 1007.546875 434.871094 1008.527344 433.078125 C 1009.085938 432.058594 1009.222656 430.984375 1008.921875 429.96875 C 1008.566406 428.773438 1007.65625 427.78125 1006.21875 427.019531 C 1004.378906 426.042969 1004.058594 424.871094 1004.023438 424.015625 L 1006.195312 413.769531 C 1006.332031 413.46875 1007.261719 412.179688 1013.042969 412.078125 C 1020.277344 411.964844 1027.652344 411.871094 1034.957031 411.792969 C 1036.597656 412.015625 1037.136719 412.6875 1037.394531 413.292969 L 1039.585938 424.144531 C 1039.492188 424.828125 1038.691406 425.660156 1037.308594 426.511719 C 1035.066406 427.886719 1034.265625 430.207031 1035.269531 432.425781 C 1036.113281 434.296875 1038.054688 435.570312 1041.027344 436.210938 L 1041.21875 436.253906 L 1041.410156 436.253906 C 1047.5 436.214844 1053.699219 436.199219 1059.855469 436.195312 C 1064.609375 436.199219 1069.453125 436.226562 1074.246094 436.277344 L 1074.445312 436.277344 C 1074.445312 436.277344 1074.636719 436.238281 1074.636719 436.238281 C 1076.265625 435.890625 1077.527344 435.132812 1078.386719 433.984375 C 1079.390625 432.644531 1079.535156 431.054688 1078.789062 429.503906 C 1078.152344 428.175781 1077.019531 427.136719 1075.433594 426.417969 Z M 1030.453125 381.988281 C 1029.925781 382.671875 1028.515625 383.054688 1026.476562 383.070312 C 1022.003906 383.101562 1019.753906 383.125 1015.304688 383.171875 C 1014.339844 383.101562 1013.6875 382.839844 1013.367188 382.390625 C 1012.863281 381.6875 1012.871094 380.226562 1013.386719 378.277344 L 1013.414062 378.164062 C 1016.03125 364.746094 1018.851562 350.519531 1022.039062 334.660156 C 1022.050781 334.59375 1022.066406 334.527344 1022.078125 334.460938 C 1022.089844 334.527344 1022.101562 334.59375 1022.117188 334.660156 C 1024.25 346.066406 1026.402344 357.464844 1028.554688 368.867188 L 1030.578125 379.59375 L 1030.601562 379.683594 C 1030.859375 380.75 1030.8125 381.523438 1030.457031 381.980469 Z M 1030.453125 381.988281 " fill-opacity="1" fill-rule="nonzero"/><path fill="#d9d9d9" d="M 1170.859375 431.863281 C 1168.6875 423.757812 1166.457031 416.21875 1164.035156 408.816406 C 1163.617188 407.019531 1162.695312 405.613281 1161.289062 404.636719 C 1159.84375 403.632812 1158.265625 403.277344 1156.742188 403.621094 C 1155.144531 403.980469 1153.996094 405.035156 1153.476562 406.605469 C 1151.84375 409.136719 1150.3125 409.074219 1149.808594 409.058594 C 1143.355469 408.820312 1136.851562 408.601562 1130.46875 408.402344 C 1126.28125 408.273438 1124.929688 407.886719 1124.550781 407.730469 C 1124.417969 407.378906 1124.097656 406.175781 1124.085938 402.65625 L 1124.070312 398.59375 C 1123.96875 370.4375 1123.867188 341.324219 1123.683594 312.6875 L 1123.625 303.753906 C 1123.621094 303.121094 1123.660156 302.824219 1123.675781 302.722656 C 1123.867188 302.34375 1124.042969 301.859375 1124.210938 301.242188 C 1124.28125 300.972656 1124.355469 300.886719 1124.355469 300.886719 L 1125.464844 299.863281 C 1125.773438 299.578125 1126.144531 299.332031 1126.574219 299.125 L 1126.753906 299.027344 C 1130.132812 296.914062 1129.90625 294.507812 1129.476562 293.261719 C 1128.804688 291.328125 1127.082031 290.039062 1124.367188 289.433594 L 1124.148438 289.386719 L 1123.929688 289.390625 C 1117.867188 289.570312 1111.722656 289.738281 1105.671875 289.878906 C 1103.625 289.925781 1102.601562 289.949219 1100.550781 289.992188 C 1098.503906 290.035156 1097.480469 290.050781 1095.429688 290.085938 C 1093.832031 290.117188 1093.027344 290.128906 1091.421875 290.15625 L 1091.117188 290.1875 C 1089.261719 290.546875 1087.808594 291.269531 1086.8125 292.339844 C 1085.625 293.613281 1085.246094 295.160156 1085.75 296.699219 C 1086.199219 298.054688 1087.210938 299.105469 1088.769531 299.820312 C 1090.632812 301.265625 1091.664062 302.832031 1091.925781 304.605469 C 1091.976562 321.667969 1092.015625 338.726562 1092.0625 355.789062 C 1092.109375 374.867188 1092.160156 393.945312 1092.214844 413.027344 C 1092.21875 413.648438 1092.226562 414.273438 1092.234375 414.902344 C 1092.277344 417.964844 1092.324219 421.128906 1091.824219 423.976562 C 1091.726562 424.535156 1090.949219 425.582031 1089.078125 426.707031 C 1085.695312 428.742188 1085.867188 431.253906 1086.273438 432.574219 C 1086.734375 434.082031 1088.027344 435.992188 1091.554688 436.507812 L 1091.777344 436.527344 C 1097.917969 436.652344 1104.125 436.796875 1110.207031 436.960938 C 1123.289062 437.378906 1136.449219 437.894531 1149.308594 438.492188 C 1152.351562 438.644531 1155.882812 438.902344 1159.804688 439.257812 C 1164.382812 439.671875 1166.808594 439.871094 1168.167969 439.957031 C 1168.289062 439.964844 1168.402344 439.96875 1168.515625 439.96875 C 1170.03125 439.96875 1170.878906 439.324219 1171.335938 438.761719 C 1172.148438 437.757812 1172.292969 436.355469 1171.785156 434.476562 L 1170.859375 431.871094 Z M 1170.859375 431.863281 " fill-opacity="1" fill-rule="nonzero"/><path fill="#d9d9d9" d="M 1264.15625 415 C 1263.769531 413.054688 1262.882812 411.515625 1261.523438 410.425781 C 1259.695312 408.957031 1258.015625 408.9375 1256.925781 409.179688 C 1255.851562 409.421875 1254.359375 410.128906 1253.316406 412.160156 C 1251.695312 415.011719 1250.21875 414.902344 1249.726562 414.863281 C 1240.707031 414.207031 1231.324219 413.546875 1221.832031 412.902344 C 1217.667969 412.625 1216.46875 412.308594 1216.148438 412.183594 C 1216.074219 412.15625 1215.738281 411.78125 1215.507812 410.582031 C 1215.464844 402.199219 1215.417969 393.820312 1215.367188 385.4375 C 1215.359375 383.769531 1215.515625 379.90625 1217.164062 379.628906 C 1218.480469 379.40625 1219.984375 379.671875 1221.34375 379.554688 C 1223.824219 379.347656 1226.484375 379.542969 1228.953125 379.761719 C 1230.519531 379.902344 1232.136719 380.339844 1233.257812 381.449219 C 1234.34375 382.519531 1234.847656 384.082031 1236.027344 385.066406 C 1237.257812 386.089844 1238.90625 386.554688 1240.457031 386.128906 C 1241.914062 385.730469 1243.847656 384.539062 1244.789062 381.117188 L 1244.855469 380.878906 L 1244.855469 380.628906 C 1244.824219 374.421875 1244.789062 368.816406 1244.75 362.609375 C 1244.722656 358.308594 1245.046875 354.007812 1244.746094 349.714844 C 1244.53125 346.65625 1243.550781 343.042969 1240.222656 342.085938 C 1239.050781 341.75 1237.8125 341.929688 1236.773438 342.566406 C 1234.984375 343.65625 1234.367188 345.730469 1232.675781 346.929688 C 1231.222656 347.953125 1230.015625 348.539062 1228.203125 348.761719 C 1226.4375 348.976562 1224.632812 348.890625 1222.867188 348.75 C 1223.019531 348.777344 1223.164062 348.808594 1223.316406 348.835938 C 1220.792969 348.902344 1217.957031 349.296875 1215.550781 348.347656 C 1215.410156 347.972656 1215.078125 346.691406 1215.039062 342.902344 C 1214.972656 335.734375 1214.894531 328.570312 1214.816406 321.402344 C 1214.765625 317.460938 1215.101562 316.21875 1215.207031 315.921875 C 1215.542969 315.761719 1216.832031 315.328125 1221.007812 315.140625 C 1230.21875 314.714844 1239.589844 314.246094 1248.859375 313.746094 C 1250.550781 313.894531 1251.761719 314.78125 1252.660156 316.527344 C 1253.960938 319.046875 1256.191406 320.039062 1258.777344 319.246094 C 1260.417969 318.742188 1262.570312 317.410156 1263.488281 313.945312 C 1264.539062 310.007812 1265.546875 306.019531 1266.476562 302.082031 C 1267.265625 298.769531 1268.042969 295.566406 1268.800781 292.550781 C 1269.519531 289.710938 1269.996094 287.890625 1270.253906 287.042969 C 1270.851562 285.222656 1271.496094 282.617188 1270.179688 280.953125 C 1269.679688 280.324219 1268.722656 279.601562 1266.988281 279.773438 C 1265.613281 279.910156 1263.152344 280.210938 1258.503906 280.8125 C 1254.511719 281.332031 1251.101562 281.71875 1248.371094 281.960938 C 1232.441406 283.347656 1216.304688 284.597656 1200.421875 285.675781 C 1194.328125 286.074219 1188.195312 286.453125 1182.191406 286.808594 L 1181.964844 286.820312 L 1181.746094 286.890625 C 1179.097656 287.753906 1177.449219 289.203125 1176.847656 291.191406 C 1176.523438 292.257812 1176.160156 294.957031 1179.765625 296.921875 C 1181.617188 297.933594 1182.648438 299.175781 1182.914062 300.703125 C 1183.449219 340.25 1183.699219 379.621094 1183.886719 416.285156 L 1183.933594 425.710938 C 1183.9375 426.402344 1183.898438 426.714844 1183.878906 426.824219 C 1183.683594 427.210938 1183.507812 427.707031 1183.339844 428.328125 C 1183.277344 428.558594 1183.21875 428.652344 1183.222656 428.652344 L 1182.113281 429.621094 C 1181.820312 429.875 1181.460938 430.089844 1181.054688 430.253906 L 1180.851562 430.351562 C 1177.390625 432.273438 1177.589844 434.78125 1178.011719 436.105469 C 1178.644531 438.089844 1180.320312 439.550781 1182.980469 440.445312 L 1183.191406 440.515625 L 1183.417969 440.53125 C 1189.542969 440.972656 1195.714844 441.441406 1201.753906 441.921875 C 1217.835938 443.296875 1233.902344 444.859375 1249.496094 446.558594 C 1252.257812 446.875 1255.652344 447.347656 1259.578125 447.964844 C 1263.820312 448.636719 1266.558594 449.058594 1268.023438 449.246094 C 1268.246094 449.273438 1268.457031 449.289062 1268.65625 449.289062 C 1270 449.289062 1270.785156 448.6875 1271.226562 448.144531 C 1272.546875 446.515625 1271.882812 443.882812 1271.261719 442.03125 C 1268.898438 434.097656 1266.636719 425.503906 1264.148438 414.996094 Z M 1264.15625 415 " fill-opacity="1" fill-rule="nonzero"/><path fill="#d9d9d9" d="M 1378.15625 455.519531 C 1377.316406 454.730469 1376.96875 453.929688 1376.855469 453.625 L 1376.730469 453.355469 C 1374.253906 448.976562 1374.460938 443.621094 1374.660156 438.4375 C 1374.707031 437.292969 1374.75 436.109375 1374.765625 434.953125 C 1374.761719 425.378906 1374.757812 415.804688 1374.742188 406.230469 L 1374.738281 406.082031 C 1373.71875 393.660156 1368.144531 383.660156 1362.070312 374.734375 C 1362.621094 374.269531 1363.132812 373.648438 1363.640625 372.84375 C 1364.128906 372.0625 1364.425781 371.664062 1364.597656 371.464844 L 1365.183594 370.757812 C 1368.546875 366.703125 1371.730469 362.875 1373.230469 358.507812 C 1374.601562 354.503906 1374.597656 349.992188 1374.59375 345.628906 C 1374.59375 344.996094 1374.59375 344.359375 1374.59375 343.703125 C 1374.542969 331.722656 1374.496094 319.738281 1374.441406 307.738281 C 1374.433594 307.046875 1374.433594 306.347656 1374.429688 305.648438 C 1374.425781 301.550781 1374.414062 297.320312 1372.945312 293.328125 C 1371.328125 288.945312 1367.703125 284.800781 1364.125 280.917969 C 1360.769531 277.347656 1357.683594 274.863281 1354.945312 273.527344 C 1352.222656 272.199219 1349.984375 271.488281 1348.101562 271.34375 C 1346.363281 271.207031 1343.855469 271.363281 1340.441406 271.8125 C 1328.605469 273.359375 1316.558594 274.847656 1304.636719 276.234375 C 1298.628906 276.917969 1292.523438 277.59375 1286.480469 278.246094 L 1286.234375 278.273438 L 1286 278.371094 C 1283.402344 279.433594 1281.792969 281.070312 1281.21875 283.238281 C 1280.578125 285.636719 1281.625 287.839844 1284.089844 289.273438 C 1285.953125 290.355469 1286.984375 291.765625 1287.25 293.578125 C 1287.632812 332.640625 1287.886719 375.40625 1288.015625 424.3125 L 1288.042969 434.992188 C 1288.042969 435.910156 1287.992188 436.277344 1287.972656 436.386719 C 1287.78125 436.804688 1287.609375 437.335938 1287.441406 438.046875 C 1287.363281 438.371094 1287.285156 438.496094 1287.292969 438.496094 L 1286.195312 439.53125 C 1285.914062 439.796875 1285.59375 440.003906 1285.210938 440.160156 L 1284.984375 440.273438 C 1281.648438 442.226562 1281.800781 444.878906 1282.1875 446.285156 C 1282.777344 448.445312 1284.375 450.121094 1286.9375 451.265625 L 1287.164062 451.371094 L 1287.410156 451.40625 C 1293.429688 452.273438 1299.503906 453.183594 1305.460938 454.101562 C 1310.144531 454.828125 1314.875 455.601562 1319.527344 456.390625 L 1319.726562 456.425781 L 1319.929688 456.414062 C 1321.902344 456.296875 1323.4375 455.589844 1324.496094 454.316406 C 1325.59375 452.992188 1325.945312 451.351562 1325.515625 449.570312 C 1325.117188 447.929688 1324.15625 446.542969 1322.648438 445.4375 C 1320.457031 443.699219 1319.390625 441.523438 1319.386719 438.785156 C 1319.355469 420.558594 1319.3125 402.328125 1319.261719 384.097656 C 1319.261719 383.339844 1319.484375 383.027344 1319.660156 382.859375 C 1319.96875 382.558594 1320.824219 382.058594 1323.128906 382.144531 L 1325.199219 382.222656 C 1330.453125 383.222656 1334.050781 386.785156 1337.285156 390.355469 C 1338.617188 391.984375 1339.324219 392.851562 1340.617188 394.449219 C 1342.609375 399.324219 1343.183594 403.257812 1343.492188 408.339844 C 1343.503906 416.058594 1343.515625 423.773438 1343.519531 431.492188 L 1343.53125 443.980469 C 1343.53125 444.910156 1343.46875 445.269531 1343.453125 445.351562 C 1343.277344 445.75 1343.109375 446.226562 1342.949219 446.773438 C 1342.871094 447.050781 1342.78125 447.167969 1342.730469 447.21875 C 1342.710938 447.242188 1342.664062 447.289062 1342.519531 447.320312 C 1341.78125 447.488281 1341.039062 447.941406 1340.253906 448.703125 C 1337.972656 450.195312 1337.054688 452.382812 1337.664062 454.882812 C 1338.230469 457.199219 1339.792969 459.054688 1342.308594 460.386719 L 1342.542969 460.511719 L 1342.804688 460.5625 C 1348.757812 461.710938 1354.8125 462.914062 1360.789062 464.136719 C 1365.46875 465.105469 1370.183594 466.113281 1374.800781 467.148438 L 1375.019531 467.195312 L 1375.242188 467.1875 C 1377.757812 467.105469 1379.160156 465.941406 1379.894531 464.976562 C 1380.941406 463.601562 1381.28125 461.878906 1380.878906 460 C 1380.542969 458.410156 1379.625 456.90625 1378.160156 455.523438 Z M 1319.539062 346.90625 C 1319.25 346.625 1319.09375 346.003906 1319.085938 345.164062 C 1319.019531 333.9375 1318.949219 322.714844 1318.867188 311.492188 C 1319.125 309.789062 1319.546875 309.453125 1319.542969 309.453125 C 1319.855469 309.3125 1321.027344 308.953125 1325.140625 308.636719 C 1330.441406 308.230469 1335.742188 307.808594 1341.039062 307.378906 C 1341.582031 307.339844 1342.023438 307.390625 1342.316406 307.53125 C 1342.46875 307.609375 1342.628906 307.855469 1342.757812 308.214844 C 1342.988281 308.847656 1343.105469 309.492188 1343.105469 310.132812 L 1343.128906 314.480469 C 1343.179688 323.175781 1343.226562 331.871094 1343.269531 340.566406 C 1343.285156 344.453125 1342.613281 346.96875 1341.546875 346.980469 C 1334.640625 347.0625 1327.730469 347.148438 1320.820312 347.242188 C 1320.402344 347.25 1319.824219 347.195312 1319.53125 346.90625 Z M 1319.539062 346.90625 " fill-opacity="1" fill-rule="nonzero"/><g clip-path="url(#d2a635c030)"><path fill="#d9d9d9" d="M 1478.820312 445.453125 L 1478.820312 299.777344 C 1478.820312 299.777344 1478.832031 299.230469 1478.832031 299.230469 C 1478.949219 293.480469 1479.074219 287.539062 1477.441406 281.855469 C 1476.097656 277.167969 1473.355469 272.261719 1468.820312 266.417969 C 1465.519531 262.164062 1456.652344 252.585938 1445.558594 255.308594 C 1438.863281 256.515625 1432.089844 257.71875 1425.429688 258.878906 C 1420.257812 259.769531 1416.3125 261.191406 1413.699219 263.101562 C 1408.734375 266.730469 1405.414062 271.757812 1402.742188 275.796875 C 1402.191406 276.625 1401.625 277.460938 1401.050781 278.308594 C 1398.242188 282.445312 1395.332031 286.722656 1393.992188 291.152344 C 1392.546875 295.917969 1392.429688 300.539062 1392.425781 306.089844 C 1392.585938 355.492188 1392.664062 393.160156 1392.675781 428.246094 L 1392.679688 428.570312 C 1392.777344 433.828125 1392.871094 438.796875 1394.277344 443.75 C 1395.628906 448.492188 1398.523438 453.125 1401.328125 457.609375 C 1401.894531 458.519531 1402.464844 459.425781 1403.023438 460.347656 C 1405.34375 464.035156 1408.113281 468.277344 1411.5625 471.867188 C 1413.980469 474.386719 1416.125 476.140625 1417.929688 477.082031 C 1419.640625 477.972656 1422.109375 478.863281 1425.484375 479.804688 C 1432 481.652344 1438.605469 483.582031 1445.109375 485.53125 C 1448.660156 486.613281 1451.652344 487.152344 1454.046875 487.152344 C 1455.292969 487.152344 1456.378906 487.003906 1457.296875 486.707031 C 1462.558594 485.019531 1466.8125 480.046875 1468.878906 477.230469 C 1469.316406 476.640625 1469.761719 476.039062 1470.214844 475.4375 C 1473.105469 471.578125 1476.09375 467.582031 1477.4375 463.128906 C 1478.953125 458.09375 1478.894531 452.816406 1478.839844 447.707031 C 1478.832031 446.949219 1478.824219 446.195312 1478.820312 445.449219 Z M 1447.777344 439.316406 C 1447.578125 441.46875 1447.042969 441.917969 1446.984375 441.964844 C 1446.875 442.042969 1446.644531 442.011719 1446.464844 441.96875 C 1439.816406 440.464844 1433.042969 438.992188 1426.332031 437.582031 C 1425.636719 437.4375 1425.1875 437.144531 1424.863281 436.628906 C 1424.417969 435.917969 1424.144531 435.09375 1424.03125 434.105469 C 1423.894531 432.929688 1423.824219 430.726562 1423.824219 427.5625 C 1423.820312 385.691406 1423.742188 343.226562 1423.660156 303.320312 C 1423.652344 301.007812 1424.617188 300.363281 1425.6875 300.054688 C 1431.039062 299.574219 1436.394531 299.089844 1441.75 298.609375 C 1447.265625 298.105469 1447.601562 300.234375 1447.691406 301.230469 C 1447.734375 346.207031 1447.777344 392.710938 1447.769531 439.316406 Z M 1447.777344 439.316406 " fill-opacity="1" fill-rule="nonzero"/></g><path fill="#d9d9d9" d="M 1263.375 362.1875 C 1263.265625 362.128906 1246.433594 356.101562 1243.429688 344.566406 C 1243 342.921875 1241.535156 341.878906 1239.992188 342.113281 C 1238.445312 342.351562 1237.296875 343.796875 1237.296875 345.503906 L 1237.296875 382.355469 C 1237.296875 383.875 1238.207031 385.207031 1239.53125 385.640625 C 1239.824219 385.734375 1240.125 385.78125 1240.421875 385.78125 C 1241.460938 385.78125 1242.453125 385.214844 1243.042969 384.222656 C 1245.078125 380.804688 1257.570312 371.28125 1263.308594 368.363281 C 1264.402344 367.808594 1265.097656 366.621094 1265.117188 365.300781 C 1265.132812 363.984375 1264.453125 362.773438 1263.378906 362.1875 Z M 1263.375 362.1875 " fill-opacity="1" fill-rule="nonzero"/></svg>